<svg xmlns="http://www.w3.org/2000/svg" viewBox="0 0 34.9 25.6" enable-background="new 0 0 34.9 25.6"><path fill="#1A1A1A" d="M17.4 21.9c-4.2 0-7.7-3.4-7.7-7.7 0-4.2 3.4-7.7 7.7-7.7 4.2 0 7.7 3.4 7.7 7.7 0 4.2-3.5 7.7-7.7 7.7zm0-14.3c-3.7 0-6.7 3-6.7 6.7s3 6.7 6.7 6.7 6.7-3 6.7-6.7-3-6.7-6.7-6.7zM33.7 25.6H1.1c-.6 0-1.1-.5-1.1-1.1V4c0-.6.5-1.1 1.1-1.1h9.2L11.9.5c.2-.3.6-.5.9-.5h8.8c.4 0 .7.2.9.5l1.6 2.4h9.6c.6 0 1.1.5 1.1 1.1v20.5c.1.6-.4 1.1-1.1 1.1zM1.1 3.9L1 4v20.5c0 .1.1.1.1.1h32.6c.1 0 .1-.1.1-.1V4c0-.1-.1-.1-.1-.1h-9.6c-.4 0-.7-.2-.9-.5L21.7 1h-8.9l-1.6 2.4c-.2.3-.5.5-.9.5H1.1zM7.9 1.5H2.1c-.3 0-.5-.2-.5-.5s.2-.5.5-.5h5.8c.3 0 .5.2.5.5s-.2.5-.5.5z"/></svg>