<?xml version="1.0" encoding="utf-8"?>
<!-- Generator: Adobe Illustrator 19.2.0, SVG Export Plug-In . SVG Version: 6.00 Build 0)  -->
<svg version="1.1" id="Layer_1" xmlns="http://www.w3.org/2000/svg" xmlns:xlink="http://www.w3.org/1999/xlink" x="0px" y="0px"
	 width="279.1px" height="83.9px" viewBox="0 0 279.1 83.9" style="enable-background:new 0 0 279.1 83.9;" xml:space="preserve">
<g>
	<g>
		<path d="M124.8,62.8V48c0-16.9-15.9-21.6-28.5-21.6c-9.7,0-18.7,4.9-22.9,7.5L77.9,46c4-2.2,9.4-4.8,15.6-4.8c5.7,0,10,1.2,10,5.9
			v3.7c-0.5-0.6-4.2-3.7-10.4-3.7c-11.9,0-21.8,7.5-21.8,19.3C71.3,78.6,82,83.9,92,83.9c3.8,0,10.3-1.4,14.2-6.7l2.5,4.7h22.5V68.5
			h-0.6C127.4,68.5,124.8,65.9,124.8,62.8z M103.5,66.8c-0.9,1.6-3.6,3.5-6.7,3.5c-3.1,0-5.6-2-5.6-4.9c0-3.3,1.9-5.6,6.1-5.6
			c4.4,0,5.9,2.5,6.2,3V66.8z"/>
		<rect x="128.1" y="41" width="3.2" height="20"/>
	</g>
	<g>
		<rect x="134.5" y="41" width="3.2" height="20"/>
		<path d="M175.1,28.6c-5.1,0-11.4,2.2-13.8,4.9V3.2H136v13.8h5v46.2c-0.3,2.8-2.4,5.1-6.3,5.1v13.6h26.8l0-2.3c0-9.2,0-33.2,0-38.7
			c8.2,0,12.9,6.7,12.9,21.2v6.7h-8v12.9c2.1,0.9,4.8,1.4,8.8,1.4c14.8,0,23.9-10.8,24.3-27C199.6,42,191.1,28.6,175.1,28.6z"/>
	</g>
	<path d="M249.6,26.9V16.7l19.2-6.4v16.6h10.2v14.1h-10.2V60c0,3.7-0.8,8.7,3.4,8.7c1.4,0,5.5-1,6.8-1.8v13.9
		c-2.6,1.3-10.2,2.1-12.7,2.1c-16.3,0-16.7-8.9-16.7-22.8V40.9h-6.4V26.9H249.6z"/>
	<polygon points="0,3.2 0,26.5 16.6,26.5 16.6,17.3 25.6,17.3 25.6,67.8 16.6,67.8 16.6,81.9 57.6,81.9 57.6,67.8 48.6,67.8 
		48.6,17.3 57.6,17.3 57.6,26.5 73,26.5 73,3.2 	"/>
	<path d="M207.1,82V67.9h3.8V41h-3.8V27h25.6v41h5.1V82H207.1z M221.6,0c7.6,0,12.1,6.1,12.1,11.2c0,6-4.3,11.1-12.1,11.1
		c-6.9,0-11.9-5.8-11.9-11.1C209.8,6.1,213.9,0,221.6,0z"/>
</g>
</svg>
